<?xml version="1.0" encoding="UTF-8"?>
<svg width="160mm" height="160mm" version="1.1" viewBox="0 0 160 160" xmlns="http://www.w3.org/2000/svg"><g transform="translate(-48 -67)"><path d="m82 151c3-0.1 7-0.09 10-0.5 1-0.2 3-0.5 4-0.7 6-1 11-3 17-5 5-2 10-5 14-7 2-1 4-3 5-4 6-5 11-10 14-17 2-4 2-5 3-8 1-5 0.6-10-1-15-1-3-2-4-3-6-2-4-5-7-9-10-0.5-0.3-1-0.6-1-0.9-1-0.5-2-0.8-3-0.9-3-0.1-7 3-9 4-3 3-6 7-8 12-2 5-3 11-4 16-0.7 6-0.6 12-0.09 18 0.5 6 1 11 2 17 0.8 5 1 9 2 14 0.7 6 1 12 2 17 0.5 6 0.5 11 0.6 17 0.02 3-0.01 6-0.5 9-0.2 1-0.5 2-0.8 4-0.8 3-2 6-5 9-0.6 0.6-1 1-2 2-0.8 0.5-1 1-2 1-0.2 0.08 0.5-0.5 0.4-0.4-1 0.3-2 0.8-3 1-2 0.7-4 1-7 1-1-0.03-3-0.3-4-0.4-7-2-14-5-19-9-1-0.8-2-2-3-3-3-3-6-7-7-11-0.2-0.5-0.2-1-0.4-1-0.02-0.4-0.1-0.9-0.07-1 0.2-3 3-5 5-6-0.1 0.1-0.6 0.4-0.4 0.3 8-3-2 0.5 6-3 3-1 6-2 10-3 6-2 12-2 19-3 6-0.3 12-0.3 18-0.09 6 0.2 12 0.7 17 0.5 1-0.05 3-0.2 4-0.3 6-0.6 12-2 17-4 4-2 6-3 10-5 4-3 7-7 9-12 1-3 2-5 2-8 1-7 2-14 0.8-21-0.07-0.5-0.1-1-0.2-2l-3 2c0.1 0.5 0.2 1 0.3 1 0.3 2 0.5 3 0.6 5 0.4 5 8e-5 11-1 16-0.8 3-1 5-2 8-2 5-5 9-9 12-2 1-1 1-5 2-5 2-11 3-17 4-1 0.08-3 0.2-4 0.2-6 0.2-11-0.3-17-0.6-6-0.3-12-0.2-18 0.05-6 0.4-13 1-19 3-7 2-15 5-21 9-2 2-5 3-5 6-0.01 0.5 0.09 0.9 0.1 1 0.2 0.5 0.3 1 0.5 1 2 4 5 8 8 11 1 0.8 2 2 3 2 6 5 12 8 19 10 3 0.4 4 0.8 8 0.3 5-0.6 9-3 14-6 0.7-0.5 1-1 2-2 3-2 4-5 5-9 0.9-4 1-8 1-13-0.1-6-0.2-11-0.7-17-0.5-6-1-12-2-17-0.6-5-1-9-2-14-1-6-2-11-2-17-0.5-6-0.6-12 0.1-18 0.7-6 2-11 4-16 2-4 4-8 8-12-0.6 0.3-1 0.9-2 0.8-0.5-0.09 0.9-0.6 1-0.8 2-0.9 4-1 6-0.06 0.5 0.3 1 0.6 2 0.9 4 2 7 6 9 10 0.5 1 1 2 2 3 2 4 3 9 3 14-0.07 1-0.3 3-0.5 4-1 4-1 5-3 8-3 7-8 12-14 17-3 2-5 4-9 6-7 4-15 6-22 8-1 0.2-3 0.4-4 0.6-3 0.3-6 0.2-10 0.09z" fill="#008000" stroke-linejoin="round" stroke-width=".9"/></g></svg>
